Coordinates
version=1
nRows=16
nColumns=40
inDegrees=yes

Units are S.I. units (second, meters, Newtons, ...)
Angles are in degrees.

endheader
time	pelvis_tilt	pelvis_list	pelvis_rotation	pelvis_tx	pelvis_ty	pelvis_tz	hip_flexion_r	hip_adduction_r	hip_rotation_r	knee_angle_r	knee_angle_r_beta	ankle_angle_r	subtalar_angle_r	mtp_angle_r	hip_flexion_l	hip_adduction_l	hip_rotation_l	knee_angle_l	knee_angle_l_beta	ankle_angle_l	subtalar_angle_l	mtp_angle_l	lumbar_extension	lumbar_bending	lumbar_rotation	arm_flex_r	arm_add_r	arm_rot_r	elbow_flex_r	pro_sup_r	wrist_flex_r	wrist_dev_r	arm_flex_l	arm_add_l	arm_rot_l	elbow_flex_l	pro_sup_l	wrist_flex_l	wrist_dev_l
     45.72642857	     -2.91540955	     -5.31331297	     -2.72388075	      1.06570630	      0.93595063	      0.39420192	     31.30239045	     -5.45080766	     -5.29957825	     51.94467404	     51.94467404	     -1.05504925	    -11.13673684	     -0.36928760	     10.95949491	     -5.97147033	    -10.05966047	     20.37421358	     20.37421358	     13.87900043	    -10.14592449	     -1.24738061	    -11.32189604	      5.46838806	      1.44205178	     -6.51206944	    -12.22904039	     -4.52918225	     26.79558014	     46.58973886	      0.00000000	      0.00000000	     19.85592072	    -18.18260920	    -11.66245318	     65.36377613	     46.89967724	      0.00000000	      0.00000000
     45.74035714	     -3.15287026	     -5.37811617	     -3.15742751	      1.06469656	      0.93587877	      0.39461007	     31.18642070	     -5.15181200	     -5.67189075	     47.72214090	     47.72214090	     -1.22324249	    -10.22513822	     -2.08938087	     10.59263750	     -6.07655262	    -10.53350122	     19.95531878	     19.95531878	     13.87709992	    -10.02484823	     -1.78094916	    -11.34101297	      5.45494862	      1.06808099	     -7.40071549	    -12.28024427	     -4.94922219	     27.95950727	     46.54235005	      0.00000000	      0.00000000	     19.46843794	    -18.57682771	    -12.88880605	     68.28220786	     47.07376800	      0.00000000	      0.00000000
     45.75428571	     -3.35339674	     -5.37145880	     -3.59208102	      1.06377207	      0.93580441	      0.39506142	     30.86993541	     -4.92287071	     -6.08258360	     43.19727649	     43.19727649	     -0.87967475	     -8.45847384	     -2.43110820	     10.15570914	     -6.07312803	    -10.94132043	     19.49437921	     19.49437921	     13.99695204	     -9.93563762	     -1.89488757	    -11.32333752	      5.39161447	      1.18507404	     -8.06024191	    -12.32546516	     -4.96360176	     27.90967426	     46.53294703	      0.00000000	      0.00000000	     20.08586012	    -18.72401965	    -13.18426850	     69.16732468	     47.12691963	      0.00000000	      0.00000000
     45.76821429	     -3.63066302	     -5.39185867	     -3.95121850	      1.06289353	      0.93548456	      0.39566978	     30.30153376	     -4.59264832	     -6.60403083	     38.06778602	     38.06778602	     -1.27001809	     -6.90899423	     -4.73413349	      9.85540728	     -6.12564884	    -11.29288950	     19.10204980	     19.10204980	     13.95724182	     -9.87942996	     -2.37220832	    -11.24141747	      5.37334362	      1.03191209	     -8.75339085	    -12.41103415	     -5.16698952	     28.72941319	     46.47467926	      0.00000000	      0.00000000	     20.17894585	    -18.88618950	    -13.87237684	     70.56878552	     47.26016186	      0.00000000	      0.00000000
     45.78214286	     -4.04760225	     -5.37396584	     -4.31681667	      1.06198864	      0.93484440	      0.39652610	     29.82106393	     -4.16268591	     -6.95449164	     32.91717382	     32.91717382	     -0.90059396	     -4.93224121	     -4.22160996	      9.77878299	     -6.16001824	    -11.57076488	     18.84798820	     18.84798820	     14.11040933	     -9.88837149	     -2.46536824	    -10.93573899	      5.29075760	      1.04336480	     -9.10043625	    -12.36958017	     -5.17876701	     28.70925005	     46.47098837	      0.00000000	      0.00000000	     20.62700166	    -19.09965787	    -13.96323110	     71.00731007	     47.28108266	      0.00000000	      0.00000000
     45.79607143	     -4.08456280	     -5.31781733	     -4.57815727	      1.06152594	      0.93460130	      0.39717508	     28.64811395	     -3.98296769	     -8.01030773	     27.52622862	     27.52622862	     -0.47523348	     -1.46971690	     -3.93813716	      9.21474763	     -6.11404297	    -11.93308252	     18.50023516	     18.50023516	     14.30367281	     -9.59317995	     -2.72885491	    -11.08078036	      5.22675285	      1.10890739	     -9.48556999	    -12.44863711	     -5.31145146	     29.00236942	     46.45826703	      0.00000000	      0.00000000	     20.99907475	    -19.10116608	    -14.18060118	     71.81202077	     47.32359376	      0.00000000	      0.00000000
     45.81000000	     -4.38315113	     -5.25996419	     -4.80999121	      1.06108034	      0.93383255	      0.39820940	     27.67367145	     -3.53671319	     -8.66996118	     22.17850544	     22.17850544	     -0.35613636	      1.07752903	     -2.92279297	      9.02356984	     -6.11449920	    -12.18038263	     18.29688829	     18.29688829	     14.48351798	     -9.55979504	     -2.93863699	    -10.80324189	      5.11812088	      1.06538776	     -9.71079669	    -12.44748375	     -5.39826190	     29.22661518	     46.44925344	      0.00000000	      0.00000000	     21.22121655	    -19.14596160	    -14.28153498	     72.22504731	     47.34536797	      0.00000000	      0.00000000
     45.82392857	     -4.45757970	     -5.06666407	     -5.00701512	      1.06095838	      0.93314614	      0.39921239	     26.53435661	     -3.37081857	     -9.92703457	     17.41147937	     17.41147937	      0.10834341	      4.86850384	     -0.92515112	      8.51867032	     -5.94976602	    -12.55031867	     17.98466492	     17.98466492	     14.65497767	     -9.23142800	     -3.37905298	    -10.79708553	      4.84036362	      1.03646296	     -9.91959286	    -12.41744326	     -5.60310792	     29.85497446	     46.42563657	      0.00000000	      0.00000000	     21.43342373	    -19.10352547	    -14.54303402	     72.74345848	     47.38958118	      0.00000000	      0.00000000
     45.83785714	     -4.64937447	     -4.93028715	     -5.14384435	      1.06094468	      0.93216720	      0.40048781	     25.54483373	     -2.95030264	    -10.60162591	     13.11101038	     13.11101038	      0.14552851	      7.11707123	      0.92800194	      8.25203878	     -5.86570232	    -12.70138350	     17.87610728	     17.87610728	     14.87104788	     -9.23694194	     -3.63377692	    -10.59913994	      4.67262468	      1.00549762	     -9.91500464	    -12.38447143	     -5.66439861	     30.13150422	     46.41409545	      0.00000000	      0.00000000	     21.57073195	    -19.05717506	    -14.56014022	     72.88118578	     47.40076118	      0.00000000	      0.00000000
     45.85178571	     -4.71750371	     -4.74724346	     -5.28558840	      1.06111601	      0.93138423	      0.40172584	     24.92810247	     -2.83867532	    -12.14583484	     10.49782017	     10.49782017	      2.01691999	     10.55524951	      7.39493286	      7.75342857	     -5.71968676	    -12.98613843	     17.60207697	     17.60207697	     14.96237340	     -9.00873034	     -4.31348838	    -10.51559938	      4.44259794	      1.08481055	    -10.02449949	    -12.39316782	     -5.84881348	     31.08399616	     46.36313056	      0.00000000	      0.00000000	     21.82515567	    -18.81376232	    -14.69633884	     72.76079304	     47.44656094	      0.00000000	      0.00000000
     45.86571429	     -4.82205276	     -4.60341321	     -5.34805389	      1.06147113	      0.93048205	      0.40323875	     24.24029152	     -2.49505344	    -12.68963954	      8.12148005	      8.12148005	      1.89510555	     11.55640204	      8.48840025	      7.34425337	     -5.61391419	    -13.04198985	     17.42759200	     17.42759200	     15.21192174	     -8.98792118	     -4.42492491	    -10.32142369	      4.26758924	      1.06825061	     -9.72065644	    -12.36707211	     -5.83476449	     31.27213691	     46.35276540	      0.00000000	      0.00000000	     21.82817128	    -18.68667415	    -14.60392121	     72.58241462	     47.44448157	      0.00000000	      0.00000000
     45.87964286	     -4.95460810	     -4.40736358	     -5.40270628	      1.06189374	      0.92955896	      0.40482316	     23.85645989	     -2.31379910	    -13.25754101	      6.88108803	      6.88108803	      1.82751121	     12.20418651	      9.09996445	      6.96512725	     -5.46822913	    -13.16527657	     17.25127202	     17.25127202	     15.46375620	     -8.86343480	     -4.54829342	    -10.09334598	      4.01890304	      1.03380066	     -9.28888484	    -12.33436120	     -5.80796309	     31.52343485	     46.34128972	      0.00000000	      0.00000000	     21.76659196	    -18.47480414	    -14.51431781	     72.29948239	     47.43700807	      0.00000000	      0.00000000
     45.89357143	     -5.03380997	     -4.33181206	     -5.41467321	      1.06251353	      0.92874103	      0.40651608	     23.60336388	     -2.11771745	    -13.70657492	      6.65537235	      6.65537235	      1.84040698	     12.22282259	      9.19581716	      6.54243828	     -5.45427100	    -13.14213220	     17.14642740	     17.14642740	     15.76618352	     -8.80321618	     -4.65386856	     -9.90135584	      3.95435384	      1.08653215	     -8.75302539	    -12.34891317	     -5.79205880	     31.76244755	     46.33372580	      0.00000000	      0.00000000	     21.57377083	    -18.14689582	    -14.39407055	     72.06792585	     47.42451459	      0.00000000	      0.00000000
     45.90750000	     -5.02981988	     -4.33903589	     -5.35949876	      1.06340519	      0.92824624	      0.40833749	     23.10147108	     -1.88379870	    -14.23802781	      6.68092504	      6.68092504	      1.70210270	     12.17580361	      9.13088451	      5.93117713	     -5.52529490	    -13.19833371	     16.87300026	     16.87300026	     16.00545371	     -8.58255368	     -4.70011354	     -9.77467641	      3.98067100	      0.99258754	     -8.15173556	    -12.41480693	     -5.76614402	     32.08130581	     46.32206512	      0.00000000	      0.00000000	     21.27190709	    -17.83378083	    -14.29279311	     71.49917167	     47.40785379	      0.00000000	      0.00000000
     45.92142857	     -5.00392708	     -4.34823086	     -5.22792418	      1.06449888	      0.92777368	      0.41012878	     22.61690447	     -1.74200965	    -14.59087925	      7.18721974	      7.18721974	      1.54075314	     11.83368641	      8.84075524	      5.31745480	     -5.60208868	    -13.17487866	     16.64332487	     16.64332487	     16.27024494	     -8.34114374	     -4.75224707	     -9.64338203	      4.02957275	      0.94884330	     -7.46575849	    -12.47422860	     -5.73680400	     32.43067062	     46.30998728	      0.00000000	      0.00000000	     20.86589575	    -17.44079003	    -14.17440666	     70.88820416	     47.38779425	      0.00000000	      0.00000000
     45.93535714	     -4.88275277	     -4.11622791	     -5.11788218	      1.06588506	      0.92723072	      0.41211286	     22.38276121	     -1.92142768	    -14.34848914	      8.55415810	      8.55415810	      1.16807303	     10.67868273	      6.49001387	      4.42925064	     -5.43357128	    -13.55387713	     16.12295355	     16.12295355	     16.62708135	     -7.37554484	     -4.72475435	     -9.45291061	      3.81424639	      0.55232138	     -6.74203336	    -12.58779506	     -5.44891381	     33.25374031	     46.25593124	      0.00000000	      0.00000000	     20.75038129	    -17.41296529	    -14.42873165	     68.55257048	     47.37417933	      0.00000000	      0.00000000
